<svg id="Layer_1" data-name="Layer 1" xmlns="http://www.w3.org/2000/svg" viewBox="0 0 40 400">
  <defs>
    <style>
      .cls-1 {
        fill: #30609f;
      }

      .cls-2 {
        fill: #44a6c6;
      }

      .cls-3 {
        fill: #add8e6;
      }
    </style>
  </defs>
  <title>Pipetop</title>
  <g>
    <path d="M4.44,400H40V380.25H35.56V0H31.11V380.25H8.89V0H4.44V380.25H0V400Zm0-9.88v-4.93H35.56v9.87H4.44Z"/>
    <polygon class="cls-1" points="8.89 9.88 8.89 14.81 8.89 19.75 8.89 24.69 8.89 29.63 8.89 34.57 8.89 39.51 8.89 44.44 8.89 49.38 8.89 54.32 8.89 59.26 8.89 64.2 8.89 69.14 8.89 74.07 8.89 79.01 8.89 83.95 8.89 88.89 8.89 93.83 8.89 98.77 8.89 103.7 8.89 108.64 8.89 113.58 8.89 118.52 8.89 123.46 8.89 128.4 8.89 133.33 8.89 138.27 8.89 143.21 8.89 148.15 8.89 153.09 8.89 158.02 8.89 162.96 8.89 167.9 8.89 172.84 8.89 177.78 8.89 182.72 8.89 187.65 8.89 192.59 8.89 197.53 8.89 202.47 8.89 207.41 8.89 212.35 8.89 217.28 8.89 222.22 8.89 227.16 8.89 232.1 8.89 237.04 8.89 241.98 8.89 246.91 8.89 251.85 8.89 256.79 8.89 261.73 8.89 266.67 8.89 271.6 8.89 276.54 8.89 281.48 8.89 286.42 8.89 291.36 8.89 296.3 8.89 301.23 8.89 306.17 8.89 311.11 8.89 316.05 8.89 320.99 8.89 325.93 8.89 330.86 8.89 335.8 8.89 340.74 8.89 345.68 8.89 350.62 8.89 355.56 8.89 360.49 8.89 365.43 8.89 370.37 8.89 375.31 8.89 380.25 13.33 380.25 17.78 380.25 17.78 375.31 17.78 370.37 17.78 365.43 17.78 360.49 17.78 355.56 17.78 350.62 17.78 345.68 17.78 340.74 17.78 335.8 17.78 330.86 17.78 325.93 17.78 320.99 17.78 316.05 17.78 311.11 17.78 306.17 17.78 301.23 17.78 296.3 17.78 291.36 17.78 286.42 17.78 281.48 17.78 276.54 17.78 271.6 17.78 266.67 17.78 261.73 17.78 256.79 17.78 251.85 17.78 246.91 17.78 241.98 17.78 237.04 17.78 232.1 17.78 227.16 17.78 222.22 17.78 217.28 17.78 212.35 17.78 207.41 17.78 202.47 17.78 197.53 17.78 192.59 17.78 187.65 17.78 182.72 17.78 177.78 17.78 172.84 17.78 167.9 17.78 162.96 17.78 158.02 17.78 153.09 17.78 148.15 17.78 143.21 17.78 138.27 17.78 133.33 17.78 128.4 17.78 123.46 17.78 118.52 17.78 113.58 17.78 108.64 17.78 103.7 17.78 98.77 17.78 93.83 17.78 88.89 17.78 83.95 17.78 79.01 17.78 74.07 17.78 69.14 17.78 64.2 17.78 59.26 17.78 54.32 17.78 49.38 17.78 44.44 17.78 39.51 17.78 34.57 17.78 29.63 17.78 24.69 17.78 19.75 17.78 14.81 17.78 9.88 17.78 4.94 17.78 0 13.33 0 8.89 0 8.89 4.94 8.89 9.88"/>
    <polygon class="cls-1" points="13.33 395.06 17.78 395.06 17.78 390.12 17.78 385.19 13.33 385.19 8.89 385.19 4.44 385.19 4.44 390.12 4.44 395.06 8.89 395.06 13.33 395.06"/>
    <polygon class="cls-2" points="17.78 9.88 17.78 14.81 17.78 19.75 17.78 24.69 17.78 29.63 17.78 34.57 17.78 39.51 17.78 44.44 17.78 49.38 17.78 54.32 17.78 59.26 17.78 64.2 17.78 69.14 17.78 74.07 17.78 79.01 17.78 83.95 17.78 88.89 17.78 93.83 17.78 98.77 17.78 103.7 17.78 108.64 17.78 113.58 17.78 118.52 17.78 123.46 17.78 128.4 17.78 133.33 17.78 138.27 17.78 143.21 17.78 148.15 17.78 153.09 17.78 158.02 17.78 162.96 17.78 167.9 17.78 172.84 17.78 177.78 17.78 182.72 17.78 187.65 17.78 192.59 17.78 197.53 17.78 202.47 17.78 207.41 17.78 212.35 17.78 217.28 17.78 222.22 17.78 227.16 17.78 232.1 17.78 237.04 17.78 241.98 17.78 246.91 17.78 251.85 17.78 256.79 17.78 261.73 17.78 266.67 17.78 271.6 17.78 276.54 17.78 281.48 17.78 286.42 17.78 291.36 17.78 296.3 17.78 301.23 17.78 306.17 17.78 311.11 17.78 316.05 17.78 320.99 17.78 325.93 17.78 330.86 17.78 335.8 17.78 340.74 17.78 345.68 17.78 350.62 17.78 355.56 17.78 360.49 17.78 365.43 17.78 370.37 17.78 375.31 17.78 380.25 22.22 380.25 26.67 380.25 26.67 375.31 26.67 370.37 26.67 365.43 26.67 360.49 26.67 355.56 26.67 350.62 26.67 345.68 26.67 340.74 26.67 335.8 26.67 330.86 26.67 325.93 26.67 320.99 26.67 316.05 26.67 311.11 26.67 306.17 26.67 301.23 26.67 296.3 26.67 291.36 26.67 286.42 26.67 281.48 26.67 276.54 26.67 271.6 26.67 266.67 26.67 261.73 26.67 256.79 26.67 251.85 26.67 246.91 26.67 241.98 26.67 237.04 26.67 232.1 26.67 227.16 26.67 222.22 26.67 217.28 26.67 212.35 26.67 207.41 26.67 202.47 26.67 197.53 26.67 192.59 26.67 187.65 26.67 182.72 26.67 177.78 26.67 172.84 26.67 167.9 26.67 162.96 26.67 158.02 26.67 153.09 26.67 148.15 26.67 143.21 26.67 138.27 26.67 133.33 26.67 128.4 26.67 123.46 26.67 118.52 26.67 113.58 26.67 108.64 26.67 103.7 26.67 98.77 26.67 93.83 26.67 88.89 26.67 83.95 26.67 79.01 26.67 74.07 26.67 69.14 26.67 64.2 26.67 59.26 26.67 54.32 26.67 49.38 26.67 44.44 26.67 39.51 26.67 34.57 26.67 29.63 26.67 24.69 26.67 19.75 26.67 14.81 26.67 9.88 26.67 4.94 26.67 0 22.22 0 17.78 0 17.78 4.94 17.78 9.88"/>
    <polygon class="cls-2" points="17.78 395.06 22.22 395.06 26.67 395.06 31.11 395.06 35.56 395.06 35.56 390.12 35.56 385.19 31.11 385.19 26.67 385.19 22.22 385.19 17.78 385.19 17.78 390.12 17.78 395.06"/>
    <polygon class="cls-3" points="26.67 9.88 26.67 14.81 26.67 19.75 26.67 24.69 26.67 29.63 26.67 34.57 26.67 39.51 26.67 44.44 26.67 49.38 26.67 54.32 26.67 59.26 26.67 64.2 26.67 69.14 26.67 74.07 26.67 79.01 26.67 83.95 26.67 88.89 26.67 93.83 26.67 98.77 26.67 103.7 26.67 108.64 26.67 113.58 26.67 118.52 26.67 123.46 26.67 128.4 26.67 133.33 26.67 138.27 26.67 143.21 26.67 148.15 26.67 153.09 26.67 158.02 26.67 162.96 26.67 167.9 26.67 172.84 26.67 177.78 26.67 182.72 26.67 187.65 26.67 192.59 26.67 197.53 26.67 202.47 26.67 207.41 26.67 212.35 26.67 217.28 26.67 222.22 26.67 227.16 26.67 232.1 26.67 237.04 26.67 241.98 26.67 246.91 26.67 251.85 26.67 256.79 26.67 261.73 26.67 266.67 26.67 271.6 26.67 276.54 26.67 281.48 26.67 286.42 26.67 291.36 26.67 296.3 26.67 301.23 26.67 306.17 26.67 311.11 26.67 316.05 26.67 320.99 26.67 325.93 26.67 330.86 26.67 335.8 26.67 340.74 26.67 345.68 26.67 350.62 26.67 355.56 26.67 360.49 26.67 365.43 26.67 370.37 26.67 375.31 26.67 380.25 31.11 380.25 31.11 375.31 31.11 370.37 31.11 365.43 31.11 360.49 31.11 355.56 31.11 350.62 31.11 345.68 31.11 340.74 31.11 335.8 31.11 330.86 31.11 325.93 31.11 320.99 31.11 316.05 31.11 311.11 31.11 306.17 31.11 301.23 31.11 296.3 31.11 291.36 31.11 286.42 31.11 281.48 31.11 276.54 31.11 271.6 31.11 266.67 31.11 261.73 31.11 256.79 31.11 251.85 31.11 246.91 31.11 241.98 31.11 237.04 31.11 232.1 31.11 227.16 31.11 222.22 31.11 217.28 31.11 212.35 31.11 207.41 31.11 202.47 31.11 197.53 31.11 192.59 31.11 187.65 31.11 182.72 31.11 177.78 31.11 172.84 31.11 167.9 31.11 162.96 31.11 158.02 31.11 153.09 31.11 148.15 31.11 143.21 31.11 138.27 31.11 133.33 31.11 128.4 31.11 123.46 31.11 118.52 31.11 113.58 31.11 108.64 31.11 103.7 31.11 98.77 31.11 93.83 31.11 88.89 31.11 83.95 31.11 79.01 31.11 74.07 31.11 69.14 31.11 64.2 31.11 59.26 31.11 54.32 31.11 49.38 31.11 44.44 31.11 39.51 31.11 34.57 31.11 29.63 31.11 24.69 31.11 19.75 31.11 14.81 31.11 9.88 31.11 4.94 31.11 0 26.67 0 26.67 4.94 26.67 9.88"/>
  </g>
</svg>
