<svg id="Layer_1" data-name="Layer 1" xmlns="http://www.w3.org/2000/svg" viewBox="0 0 80 800">
  <defs>
    <style>
      .cls-1 {
        fill: #30609f;
      }

      .cls-2 {
        fill: #44a6c6;
      }

      .cls-3 {
        fill: #add8e6;
      }
    </style>
  </defs>
  <title>pipebottom</title>
  <g>
    <path d="M71.1,0H0V39.5H8.9V800h8.9V39.5H62.2V800h8.9V39.5H80V0Zm0,19.8v9.8H8.9V9.9H71.1Z"/>
    <polygon class="cls-1" points="62.2 780.2 62.2 770.4 62.2 760.5 62.2 750.6 62.2 740.7 62.2 730.9 62.2 721 62.2 711.1 62.2 701.2 62.2 691.4 62.2 681.5 62.2 671.6 62.2 661.7 62.2 651.9 62.2 642 62.2 632.1 62.2 622.2 62.2 612.3 62.2 602.5 62.2 592.6 62.2 582.7 62.2 572.8 62.2 563 62.2 553.1 62.2 543.2 62.2 533.3 62.2 523.5 62.2 513.6 62.2 503.7 62.2 493.8 62.2 484 62.2 474.1 62.2 464.2 62.2 454.3 62.2 444.4 62.2 434.6 62.2 424.7 62.2 414.8 62.2 404.9 62.2 395.1 62.2 385.2 62.2 375.3 62.2 365.4 62.2 355.6 62.2 345.7 62.2 335.8 62.2 325.9 62.2 316 62.2 306.2 62.2 296.3 62.2 286.4 62.2 276.5 62.2 266.7 62.2 256.8 62.2 246.9 62.2 237 62.2 227.2 62.2 217.3 62.2 207.4 62.2 197.5 62.2 187.7 62.2 177.8 62.2 167.9 62.2 158 62.2 148.1 62.2 138.3 62.2 128.4 62.2 118.5 62.2 108.6 62.2 98.8 62.2 88.9 62.2 79 62.2 69.1 62.2 59.3 62.2 49.4 62.2 39.5 53.3 39.5 44.4 39.5 44.4 49.4 44.4 59.3 44.4 69.1 44.4 79 44.4 88.9 44.4 98.8 44.4 108.6 44.4 118.5 44.4 128.4 44.4 138.3 44.4 148.1 44.4 158 44.4 167.9 44.4 177.8 44.4 187.7 44.4 197.5 44.4 207.4 44.4 217.3 44.4 227.2 44.4 237 44.4 246.9 44.4 256.8 44.4 266.7 44.4 276.5 44.4 286.4 44.4 296.3 44.4 306.2 44.4 316 44.4 325.9 44.4 335.8 44.4 345.7 44.4 355.6 44.4 365.4 44.4 375.3 44.4 385.2 44.4 395.1 44.4 404.9 44.4 414.8 44.4 424.7 44.4 434.6 44.4 444.4 44.4 454.3 44.4 464.2 44.4 474.1 44.4 484 44.4 493.8 44.4 503.7 44.4 513.6 44.4 523.5 44.4 533.3 44.4 543.2 44.4 553.1 44.4 563 44.4 572.8 44.4 582.7 44.4 592.6 44.4 602.5 44.4 612.3 44.4 622.2 44.4 632.1 44.4 642 44.4 651.9 44.4 661.7 44.4 671.6 44.4 681.5 44.4 691.4 44.4 701.2 44.4 711.1 44.4 721 44.4 730.9 44.4 740.7 44.4 750.6 44.4 760.5 44.4 770.4 44.4 780.2 44.4 790.1 44.4 800 53.3 800 62.2 800 62.2 790.1 62.2 780.2"/>
    <polygon class="cls-1" points="53.3 9.9 44.4 9.9 44.4 19.8 44.4 29.6 53.3 29.6 62.2 29.6 71.1 29.6 71.1 19.8 71.1 9.9 62.2 9.9 53.3 9.9"/>
    <polygon class="cls-2" points="44.4 780.2 44.4 770.4 44.4 760.5 44.4 750.6 44.4 740.7 44.4 730.9 44.4 721 44.4 711.1 44.4 701.2 44.4 691.4 44.4 681.5 44.4 671.6 44.4 661.7 44.4 651.9 44.4 642 44.4 632.1 44.4 622.2 44.4 612.3 44.4 602.5 44.4 592.6 44.4 582.7 44.4 572.8 44.4 563 44.4 553.1 44.4 543.2 44.4 533.3 44.4 523.5 44.4 513.6 44.4 503.7 44.4 493.8 44.4 484 44.4 474.1 44.4 464.2 44.4 454.3 44.4 444.4 44.4 434.6 44.4 424.7 44.4 414.8 44.4 404.9 44.4 395.1 44.4 385.2 44.4 375.3 44.4 365.4 44.4 355.6 44.4 345.7 44.4 335.8 44.4 325.9 44.4 316 44.4 306.2 44.4 296.3 44.4 286.4 44.4 276.5 44.4 266.7 44.4 256.8 44.4 246.9 44.4 237 44.4 227.2 44.4 217.3 44.4 207.4 44.4 197.5 44.4 187.7 44.4 177.8 44.4 167.9 44.4 158 44.4 148.1 44.4 138.3 44.4 128.4 44.4 118.5 44.4 108.6 44.4 98.8 44.4 88.9 44.4 79 44.4 69.1 44.4 59.3 44.4 49.4 44.4 39.5 35.6 39.5 26.7 39.5 26.7 49.4 26.7 59.3 26.7 69.1 26.7 79 26.7 88.9 26.7 98.8 26.7 108.6 26.7 118.5 26.7 128.4 26.7 138.3 26.7 148.1 26.7 158 26.7 167.9 26.7 177.8 26.7 187.7 26.7 197.5 26.7 207.4 26.7 217.3 26.7 227.2 26.7 237 26.7 246.9 26.7 256.8 26.7 266.7 26.7 276.5 26.7 286.4 26.7 296.3 26.7 306.2 26.7 316 26.7 325.9 26.7 335.8 26.7 345.7 26.7 355.6 26.7 365.4 26.7 375.3 26.7 385.2 26.7 395.1 26.7 404.9 26.7 414.8 26.7 424.7 26.7 434.6 26.7 444.4 26.7 454.3 26.7 464.2 26.7 474.1 26.7 484 26.7 493.8 26.7 503.7 26.7 513.6 26.7 523.5 26.7 533.3 26.7 543.2 26.7 553.1 26.7 563 26.7 572.8 26.7 582.7 26.7 592.6 26.7 602.5 26.7 612.3 26.7 622.2 26.7 632.1 26.7 642 26.7 651.9 26.7 661.7 26.7 671.6 26.7 681.5 26.7 691.4 26.7 701.2 26.7 711.1 26.7 721 26.7 730.9 26.7 740.7 26.7 750.6 26.7 760.5 26.7 770.4 26.7 780.2 26.7 790.1 26.7 800 35.6 800 44.4 800 44.4 790.1 44.4 780.2"/>
    <polygon class="cls-2" points="44.4 9.9 35.6 9.9 26.7 9.9 17.8 9.9 8.9 9.9 8.9 19.8 8.9 29.6 17.8 29.6 26.7 29.6 35.6 29.6 44.4 29.6 44.4 19.8 44.4 9.9"/>
    <polygon class="cls-3" points="26.7 780.2 26.7 770.4 26.7 760.5 26.7 750.6 26.7 740.7 26.7 730.9 26.7 721 26.7 711.1 26.7 701.2 26.7 691.4 26.7 681.5 26.7 671.6 26.7 661.7 26.7 651.9 26.7 642 26.7 632.1 26.7 622.2 26.7 612.3 26.7 602.5 26.7 592.6 26.7 582.7 26.7 572.8 26.7 563 26.7 553.1 26.7 543.2 26.7 533.3 26.7 523.5 26.7 513.6 26.7 503.7 26.7 493.8 26.7 484 26.7 474.1 26.7 464.2 26.7 454.3 26.7 444.4 26.7 434.6 26.7 424.7 26.7 414.8 26.7 404.9 26.7 395.1 26.7 385.2 26.7 375.3 26.7 365.4 26.7 355.6 26.7 345.7 26.7 335.8 26.7 325.9 26.7 316 26.7 306.2 26.7 296.3 26.7 286.4 26.7 276.5 26.7 266.7 26.7 256.8 26.7 246.9 26.7 237 26.7 227.2 26.7 217.3 26.7 207.4 26.7 197.5 26.7 187.7 26.7 177.8 26.7 167.9 26.7 158 26.7 148.1 26.7 138.3 26.7 128.4 26.7 118.5 26.7 108.6 26.7 98.8 26.7 88.9 26.7 79 26.7 69.1 26.7 59.3 26.7 49.4 26.7 39.5 17.8 39.5 17.8 49.4 17.8 59.3 17.8 69.1 17.8 79 17.8 88.9 17.8 98.8 17.8 108.6 17.8 118.5 17.8 128.4 17.8 138.3 17.8 148.1 17.8 158 17.8 167.9 17.8 177.8 17.8 187.7 17.8 197.5 17.8 207.4 17.8 217.3 17.8 227.2 17.8 237 17.8 246.9 17.8 256.8 17.8 266.7 17.8 276.5 17.8 286.4 17.8 296.3 17.8 306.2 17.8 316 17.8 325.9 17.8 335.8 17.8 345.7 17.8 355.6 17.8 365.4 17.8 375.3 17.8 385.2 17.8 395.1 17.8 404.9 17.8 414.8 17.8 424.7 17.8 434.6 17.8 444.4 17.8 454.3 17.8 464.2 17.8 474.1 17.8 484 17.8 493.8 17.8 503.7 17.8 513.6 17.8 523.5 17.8 533.3 17.8 543.2 17.8 553.1 17.8 563 17.8 572.8 17.8 582.7 17.8 592.6 17.8 602.5 17.8 612.3 17.8 622.2 17.8 632.1 17.8 642 17.8 651.9 17.8 661.7 17.8 671.6 17.8 681.5 17.8 691.4 17.8 701.2 17.8 711.1 17.8 721 17.8 730.9 17.8 740.7 17.8 750.6 17.8 760.5 17.8 770.4 17.8 780.2 17.8 790.1 17.8 800 26.7 800 26.7 790.1 26.7 780.2"/>
  </g>
</svg>
