<?xml version="1.0" encoding="utf-8"?>
<!-- Generator: Adobe Illustrator 23.0.3, SVG Export Plug-In . SVG Version: 6.00 Build 0)  -->
<svg version="1.1" id="Ebene_1" xmlns="http://www.w3.org/2000/svg" xmlns:xlink="http://www.w3.org/1999/xlink" x="0px" y="0px"
	 viewBox="0 0 210.4 210.4" width="210.4px" height="210.4px" style="enable-background:new 0 0 210.4 210.4;" xml:space="preserve">
<style type="text/css">
	.st0{fill:#FFFFFF;stroke:#000000;stroke-miterlimit:10;}
	.st1{fill:#FF0000;stroke:#000000;stroke-miterlimit:10;}
	.st2{fill:#02B21B;stroke:#000000;stroke-miterlimit:10;}
</style>
<circle class="st0" cx="105.2" cy="105.2" r="105.2"/>
<g id="Background">
</g>
<path class="st1" d="M158.6,77.3L158.6,77.3c-7.9-8.5-20.7-8.5-28.6,0l-0.9,1l-0.9-1c-7.9-8.5-20.7-8.5-28.6,0l0,0
	c-7.9,8.5-7.9,22.2,0,30.6l0.9,1l28.6,30.6l28.6-30.6l0.9-1C166.5,99.4,166.5,85.7,158.6,77.3z"/>
<polygon class="st2" points="77.8,100.3 67.8,100.3 67.8,89.7 58.7,89.7 58.7,100.3 48.8,100.3 48.8,110.1 58.7,110.1 58.7,120.7 
	67.8,120.7 67.8,110.1 77.8,110.1 "/>
</svg>
