<?xml version="1.0" encoding="utf-8"?>
<!-- Generator: Adobe Illustrator 23.0.3, SVG Export Plug-In . SVG Version: 6.00 Build 0)  -->
<svg version="1.1" id="Ebene_1" xmlns="http://www.w3.org/2000/svg" xmlns:xlink="http://www.w3.org/1999/xlink" x="0px" y="0px"
	 viewBox="0 0 210.4 210.4" width="210.4px" height="210.4px" style="enable-background:new 0 0 210.4 210.4;" xml:space="preserve">
<style type="text/css">
	.st0{fill:#FFFFFF;stroke:#000000;stroke-miterlimit:10;}
	.st1{fill:#B3B2B2;stroke:#000000;stroke-miterlimit:10;}
	.st2{fill:#FFFFFF;stroke:#02B21B;stroke-width:2;stroke-miterlimit:10;}
</style>
<circle class="st0" cx="105.2" cy="105.2" r="105.2"/>
<path class="st1" d="M165.8,115.5H44.8c-6,0-10.8-4.6-10.8-10.2c0-5.6,4.8-10.2,10.8-10.2h120.9c5.9,0,10.8,4.6,10.8,10.2
	S171.7,115.5,165.8,115.5z"/>
<path class="st2" d="M184.5,94c0,0,7.3,11.9,0,22.7"/>
<path class="st2" d="M191,90.3c0,0,9.6,15.7,0,30"/>
<path class="st2" d="M12.4,87.6c0,0-11.4,18.7,0,35.5"/>
<path class="st2" d="M198.1,87.6c0,0,11.4,18.7,0,35.5"/>
<path class="st2" d="M26.1,94c0,0-7.3,11.9,0,22.7"/>
<path class="st2" d="M19.6,90.3c0,0-9.6,15.7,0,30"/>
<g id="Background">
</g>
</svg>
