<svg id="Layer_1" data-name="Layer 1" xmlns="http://www.w3.org/2000/svg" viewBox="0 0 300 200" width="300" height="200">
  <defs>
    <style>
      .cls-1 {
        fill: none;
      }

      .cls-2 {
        fill: #f7931e;
      }

      .cls-3 {
        fill: #fbb03b;
      }

      .cls-4 {
        fill: #1a1a1a;
      }

      .cls-5 {
        fill: #333;
      }

      .cls-6 {
        fill: #0071bc;
      }

      .cls-7 {
        fill: #29abe2;
      }

      .cls-8 {
        fill: gray;
      }

      .cls-9 {
        fill: #666;
      }
    </style>
  </defs>
  <title>ship</title>
  <g>
    <polygon class="cls-1" points="290.3 47.6 290.3 38.1 280.6 38.1 280.6 47.6 280.6 57.1 280.6 66.7 290.3 66.7 290.3 57.1 290.3 47.6"/>
    <polygon class="cls-2" points="271 38.1 280.6 38.1 280.6 28.6 280.6 19.1 271 19.1 271 28.6 261.3 28.6 261.3 38.1 271 38.1"/>
    <rect class="cls-3" x="251.6" y="28.6" width="9.7" height="9.53"/>
    <path class="cls-4" d="M290.3,19V9.5H251.6V19h-9.7v9.6h-9.6v19H212.9v9.5H193.5v9.6h-29V57.1h-29V47.6H77.4v-19H67.7v19H58.1V38.1H48.4v9.5H9.7v85.7h9.6v9.6H38.7v-9.6h9.7v-9.5h9.7v-19h9.6V95.2h9.7V66.7h9.7V57.1h38.7V95.2h9.7V66.7h19.3v9.5h48.4V66.7h19.4V57.1h19.3v-19h9.7V28.6H271V19h9.7V38.1H300V19ZM19.3,85.7V57.1H58.1V85.7H48.4v9.5H19.3Zm29.1,28.6H38.7v9.5H19.3v-19H48.4Z"/>
    <polygon class="cls-5" points="271 171.4 271 161.9 261.3 161.9 251.6 161.9 251.6 171.4 261.3 171.4 271 171.4"/>
    <rect x="58.1" y="38.1" width="9.7" height="9.52"/>
    <rect x="67.7" y="19" width="9.7" height="9.52"/>
    <rect x="48.4" y="28.6" width="9.7" height="9.53"/>
    <polygon class="cls-3" points="251.6 47.6 251.6 38.1 241.9 38.1 241.9 47.6 241.9 57.1 251.6 57.1 251.6 47.6"/>
    <polygon class="cls-2" points="251.6 57.1 261.3 57.1 261.3 47.6 261.3 38.1 251.6 38.1 251.6 47.6 251.6 57.1"/>
    <polygon class="cls-6" points="280.6 152.4 280.6 161.9 280.6 171.4 280.6 180.9 280.6 190.5 290.3 190.5 290.3 180.9 290.3 171.4 290.3 161.9 290.3 152.4 290.3 142.9 280.6 142.9 280.6 152.4"/>
    <polygon class="cls-7" points="290.3 47.6 290.3 57.1 290.3 66.7 300 66.7 300 57.1 300 47.6 300 38.1 290.3 38.1 290.3 47.6"/>
    <polygon class="cls-7" points="290.3 161.9 290.3 171.4 290.3 180.9 290.3 190.5 300 190.5 300 180.9 300 171.4 300 161.9 300 152.4 300 142.9 290.3 142.9 290.3 152.4 290.3 161.9"/>
    <polygon class="cls-4" points="280.6 57.1 280.6 47.6 280.6 38.1 271 38.1 261.3 38.1 261.3 47.6 261.3 57.1 261.3 66.7 251.6 66.7 251.6 76.2 251.6 85.7 251.6 95.2 251.6 104.8 251.6 114.3 251.6 123.8 251.6 133.3 261.3 133.3 261.3 142.9 261.3 152.4 251.6 152.4 251.6 142.9 241.9 142.9 241.9 133.3 232.3 133.3 222.6 133.3 212.9 133.3 203.2 133.3 193.6 133.3 183.9 133.3 174.2 133.3 164.5 133.3 154.8 133.3 145.2 133.3 135.5 133.3 125.8 133.3 125.8 123.8 125.8 114.3 125.8 104.8 125.8 95.2 116.1 95.2 116.1 104.8 116.1 114.3 116.1 123.8 116.1 133.3 106.5 133.3 96.8 133.3 87.1 133.3 77.4 133.3 77.4 142.9 67.7 142.9 58.1 142.9 58.1 152.4 48.4 152.4 38.7 152.4 29 152.4 19.4 152.4 19.4 161.9 19.4 171.4 29 171.4 38.7 171.4 48.4 171.4 48.4 161.9 58.1 161.9 67.7 161.9 67.7 152.4 77.4 152.4 87.1 152.4 87.1 142.9 96.8 142.9 106.5 142.9 116.1 142.9 125.8 142.9 135.5 142.9 145.2 142.9 154.8 142.9 164.5 142.9 174.2 142.9 183.9 142.9 193.6 142.9 203.2 142.9 203.2 152.4 212.9 152.4 222.6 152.4 232.3 152.4 232.3 161.9 241.9 161.9 241.9 171.4 251.6 171.4 251.6 161.9 261.3 161.9 271 161.9 271 171.4 261.3 171.4 251.6 171.4 251.6 180.9 261.3 180.9 271 180.9 271 190.5 271 200 280.6 200 290.3 200 290.3 190.5 280.6 190.5 280.6 180.9 280.6 171.4 280.6 161.9 280.6 152.4 280.6 142.9 290.3 142.9 290.3 133.3 280.6 133.3 271 133.3 271 123.8 261.3 123.8 261.3 114.3 261.3 104.8 271 104.8 280.6 104.8 280.6 95.2 280.6 85.7 271 85.7 261.3 85.7 261.3 76.2 271 76.2 280.6 76.2 290.3 76.2 290.3 66.7 280.6 66.7 280.6 57.1"/>
    <polygon class="cls-8" points="193.6 104.8 203.2 104.8 203.2 95.2 203.2 85.7 193.6 85.7 183.9 85.7 183.9 95.2 193.6 95.2 193.6 104.8"/>
    <polygon class="cls-2" points="174.2 104.8 164.5 104.8 154.8 104.8 154.8 114.3 164.5 114.3 174.2 114.3 183.9 114.3 193.6 114.3 193.6 104.8 183.9 104.8 174.2 104.8"/>
    <polygon class="cls-3" points="154.8 104.8 164.5 104.8 174.2 104.8 183.9 104.8 193.6 104.8 193.6 95.2 183.9 95.2 174.2 95.2 164.5 95.2 154.8 95.2 154.8 104.8"/>
    <path class="cls-5" d="M125.8,114.3v19H241.9v9.6h9.7v9.5h9.7V133.3h-9.7V66.7h9.7V57.1H222.6v9.6H203.2v9.5H154.8V66.7H135.5V95.2h-9.7v19.1Zm19.4-28.6h19.3v9.5h19.4V85.7h19.3v19.1h-9.7v9.5H145.2V85.7Z"/>
    <polygon class="cls-8" points="145.2 114.3 154.8 114.3 154.8 104.8 154.8 95.2 164.5 95.2 164.5 85.7 154.8 85.7 145.2 85.7 145.2 95.2 145.2 104.8 145.2 114.3"/>
    <rect class="cls-9" x="67.7" y="133.3" width="9.7" height="9.53"/>
    <polygon class="cls-9" points="106.5 66.7 96.8 66.7 96.8 76.2 96.8 85.7 87.1 85.7 87.1 95.2 87.1 104.8 87.1 114.3 77.4 114.3 77.4 123.8 77.4 133.3 87.1 133.3 96.8 133.3 106.5 133.3 116.1 133.3 116.1 123.8 116.1 114.3 116.1 104.8 116.1 95.2 125.8 95.2 125.8 85.7 125.8 76.2 125.8 66.7 116.1 66.7 106.5 66.7"/>
    <polygon class="cls-5" points="48.4 152.4 58.1 152.4 58.1 142.9 67.7 142.9 67.7 133.3 77.4 133.3 77.4 123.8 77.4 114.3 87.1 114.3 87.1 104.8 87.1 95.2 87.1 85.7 96.8 85.7 96.8 76.2 96.8 66.7 106.5 66.7 116.1 66.7 125.8 66.7 125.8 57.1 116.1 57.1 106.5 57.1 96.8 57.1 87.1 57.1 87.1 66.7 77.4 66.7 77.4 76.2 77.4 85.7 77.4 95.2 67.7 95.2 67.7 104.8 58.1 104.8 58.1 114.3 58.1 123.8 48.4 123.8 48.4 133.3 38.7 133.3 38.7 142.9 48.4 142.9 48.4 152.4"/>
    <rect class="cls-3" x="38.7" y="142.9" width="9.7" height="9.52"/>
    <polygon class="cls-2" points="38.7 152.4 38.7 142.9 29 142.9 19.4 142.9 19.4 152.4 29 152.4 38.7 152.4"/>
    <polygon class="cls-6" points="29 104.8 29 114.3 19.4 114.3 19.4 123.8 29 123.8 38.7 123.8 38.7 114.3 48.4 114.3 48.4 104.8 38.7 104.8 29 104.8"/>
    <polygon class="cls-6" points="38.7 95.2 48.4 95.2 48.4 85.7 58.1 85.7 58.1 76.2 58.1 66.7 58.1 57.1 48.4 57.1 38.7 57.1 38.7 66.7 38.7 76.2 29 76.2 29 85.7 19.4 85.7 19.4 95.2 29 95.2 38.7 95.2"/>
    <rect class="cls-7" x="19.3" y="104.8" width="9.7" height="9.53"/>
    <polygon class="cls-7" points="29 76.2 38.7 76.2 38.7 66.7 38.7 57.1 29 57.1 19.4 57.1 19.4 66.7 19.4 76.2 19.4 85.7 29 85.7 29 76.2"/>
  </g>
</svg>
