<svg id="Layer_1" data-name="Layer 1" xmlns="http://www.w3.org/2000/svg" viewBox="0 0 200 300" width="200" height="300">
  <defs>
    <style>
      .cls-1 {
        fill: #fbb03b;
      }

      .cls-2 {
        fill: #333;
      }

      .cls-3 {
        fill: #e6e6e6;
      }

      .cls-4 {
        fill: #999;
      }

      .cls-5 {
        fill: #b3b3b3;
      }

      .cls-6 {
        fill: #f7931e;
      }

      .cls-7 {
        fill: #ccc;
      }
    </style>
  </defs>
  <title>shuttle</title>
  <g>
    <rect class="cls-1" x="190.5" y="183.9" width="9.5" height="9.68"/>
    <path class="cls-2" d="M190.5,0H123.8V19.3h9.5V38.7h-9.5v9.7h-19v9.7H95.2V48.4h-19V38.7H66.7V19.3h9.5V0H0V96.8H66.7V77.4h19V96.8H76.2v19.3H66.7v9.7H47.6V106.5H9.5v38.7H0v38.7H9.5V164.5H19v-9.7H47.6V135.5H66.7v9.7h19v9.6H76.2v9.7H66.7v9.7H57.1v19.3H47.6v9.7H38.1v9.7h9.5v29h9.5v-29h9.6v-9.7h9.5V183.9h9.5v96.7h9.5V261.3h9.6v19.3h9.5V183.9h9.5v19.3h9.5v9.7h9.6v29h9.5v-29h9.5v-9.7h-9.5v-9.7h-9.5V174.2h-9.6v-9.7h-9.5v-9.7h-9.5v-9.6h19v-9.7h19.1v19.3H181v9.7h9.5v19.4H200V145.2h-9.5V106.5H152.4v19.3H133.3v-9.7h-9.5V96.8h-9.5V77.4h19V96.8H200V0ZM38.1,145.2H19V116.1H38.1v29.1Zm123.8-29.1H181v29.1H161.9V116.1ZM57.1,87.1H9.5V9.7H57.1V87.1Zm47.7,0v96.8H95.2V77.4h9.6Zm85.7-67.8V87.1H142.9V9.7h47.6Z"/>
    <polygon class="cls-3" points="180.9 125.8 180.9 116.1 171.4 116.1 161.9 116.1 161.9 125.8 171.4 125.8 180.9 125.8"/>
    <polygon class="cls-3" points="171.4 67.7 171.4 77.4 171.4 87.1 180.9 87.1 190.5 87.1 190.5 77.4 190.5 67.7 180.9 67.7 171.4 67.7"/>
    <polygon class="cls-3" points="171.4 38.7 171.4 48.4 171.4 58.1 180.9 58.1 190.5 58.1 190.5 48.4 190.5 38.7 180.9 38.7 171.4 38.7"/>
    <polygon class="cls-4" points="171.4 29 171.4 19.4 171.4 9.7 161.9 9.7 161.9 19.4 161.9 29 152.4 29 142.9 29 142.9 38.7 152.4 38.7 161.9 38.7 161.9 48.4 161.9 58.1 152.4 58.1 142.9 58.1 142.9 67.7 152.4 67.7 161.9 67.7 161.9 77.4 161.9 87.1 171.4 87.1 171.4 77.4 171.4 67.7 180.9 67.7 190.5 67.7 190.5 58.1 180.9 58.1 171.4 58.1 171.4 48.4 171.4 38.7 180.9 38.7 190.5 38.7 190.5 29 180.9 29 171.4 29"/>
    <polygon class="cls-3" points="171.4 9.7 171.4 19.4 171.4 29 180.9 29 190.5 29 190.5 19.4 190.5 9.7 180.9 9.7 171.4 9.7"/>
    <polygon class="cls-2" points="161.9 232.3 161.9 241.9 171.4 241.9 171.4 232.3 171.4 222.6 171.4 212.9 161.9 212.9 161.9 222.6 161.9 232.3"/>
    <polygon class="cls-3" points="161.9 135.5 161.9 145.2 171.4 145.2 180.9 145.2 180.9 135.5 171.4 135.5 161.9 135.5"/>
    <polygon class="cls-5" points="171.4 135.5 180.9 135.5 180.9 125.8 171.4 125.8 161.9 125.8 161.9 135.5 171.4 135.5"/>
    <rect class="cls-1" x="152.4" y="271" width="9.5" height="9.68"/>
    <rect class="cls-6" x="152.4" y="261.3" width="9.5" height="9.68"/>
    <polygon class="cls-2" points="152.4 251.6 152.4 261.3 161.9 261.3 161.9 251.6 161.9 241.9 152.4 241.9 152.4 251.6"/>
    <polygon class="cls-7" points="152.4 222.6 152.4 232.3 152.4 241.9 161.9 241.9 161.9 232.3 161.9 222.6 161.9 212.9 152.4 212.9 152.4 222.6"/>
    <polygon class="cls-3" points="161.9 67.7 152.4 67.7 142.9 67.7 142.9 77.4 142.9 87.1 152.4 87.1 161.9 87.1 161.9 77.4 161.9 67.7"/>
    <polygon class="cls-3" points="161.9 58.1 161.9 48.4 161.9 38.7 152.4 38.7 142.9 38.7 142.9 48.4 142.9 58.1 152.4 58.1 161.9 58.1"/>
    <polygon class="cls-3" points="161.9 29 161.9 19.4 161.9 9.7 152.4 9.7 142.9 9.7 142.9 19.4 142.9 29 152.4 29 161.9 29"/>
    <rect class="cls-6" x="104.8" y="280.6" width="9.5" height="9.67"/>
    <polygon class="cls-1" points="104.8 280.6 95.2 280.6 95.2 290.3 85.7 290.3 85.7 300 95.2 300 104.8 300 114.3 300 114.3 290.3 104.8 290.3 104.8 280.6"/>
    <polygon class="cls-6" points="104.8 271 104.8 261.3 95.2 261.3 95.2 271 95.2 280.6 104.8 280.6 104.8 271"/>
    <polygon class="cls-7" points="95.2 164.5 95.2 174.2 95.2 183.9 104.8 183.9 104.8 174.2 104.8 164.5 104.8 154.8 95.2 154.8 95.2 164.5"/>
    <polygon class="cls-4" points="95.2 87.1 95.2 96.8 95.2 106.5 95.2 116.1 95.2 125.8 95.2 135.5 95.2 145.2 95.2 154.8 104.8 154.8 104.8 145.2 104.8 135.5 104.8 125.8 104.8 116.1 104.8 106.5 104.8 96.8 104.8 87.1 104.8 77.4 95.2 77.4 95.2 87.1"/>
    <rect class="cls-6" x="85.7" y="280.6" width="9.5" height="9.67"/>
    <polygon class="cls-3" points="47.6 67.7 38.1 67.7 38.1 77.4 38.1 87.1 47.6 87.1 57.1 87.1 57.1 77.4 57.1 67.7 47.6 67.7"/>
    <rect class="cls-1" x="38.1" y="271" width="9.5" height="9.68"/>
    <rect class="cls-6" x="38.1" y="261.3" width="9.5" height="9.68"/>
    <polygon class="cls-2" points="38.1 251.6 38.1 261.3 47.6 261.3 47.6 251.6 47.6 241.9 38.1 241.9 38.1 251.6"/>
    <polygon class="cls-7" points="47.6 222.6 47.6 212.9 38.1 212.9 38.1 222.6 38.1 232.3 38.1 241.9 47.6 241.9 47.6 232.3 47.6 222.6"/>
    <polygon class="cls-3" points="38.1 38.7 38.1 48.4 38.1 58.1 47.6 58.1 57.1 58.1 57.1 48.4 57.1 38.7 47.6 38.7 38.1 38.7"/>
    <polygon class="cls-3" points="38.1 29 47.6 29 57.1 29 57.1 19.4 57.1 9.7 47.6 9.7 38.1 9.7 38.1 19.4 38.1 29"/>
    <polygon class="cls-2" points="38.1 222.6 38.1 212.9 28.6 212.9 28.6 222.6 28.6 232.3 28.6 241.9 38.1 241.9 38.1 232.3 38.1 222.6"/>
    <polygon class="cls-5" points="28.6 125.8 19.1 125.8 19.1 135.5 28.6 135.5 38.1 135.5 38.1 125.8 28.6 125.8"/>
    <polygon class="cls-3" points="38.1 125.8 38.1 116.1 28.6 116.1 19.1 116.1 19.1 125.8 28.6 125.8 38.1 125.8"/>
    <polygon class="cls-4" points="38.1 67.7 47.6 67.7 57.1 67.7 57.1 58.1 47.6 58.1 38.1 58.1 38.1 48.4 38.1 38.7 47.6 38.7 57.1 38.7 57.1 29 47.6 29 38.1 29 38.1 19.4 38.1 9.7 28.6 9.7 28.6 19.4 28.6 29 19.1 29 9.5 29 9.5 38.7 19.1 38.7 28.6 38.7 28.6 48.4 28.6 58.1 19.1 58.1 9.5 58.1 9.5 67.7 19.1 67.7 28.6 67.7 28.6 77.4 28.6 87.1 38.1 87.1 38.1 77.4 38.1 67.7"/>
    <polygon class="cls-3" points="19.1 135.5 19.1 145.2 28.6 145.2 38.1 145.2 38.1 135.5 28.6 135.5 19.1 135.5"/>
    <polygon class="cls-3" points="28.6 67.7 19.1 67.7 9.5 67.7 9.5 77.4 9.5 87.1 19.1 87.1 28.6 87.1 28.6 77.4 28.6 67.7"/>
    <polygon class="cls-3" points="28.6 58.1 28.6 48.4 28.6 38.7 19.1 38.7 9.5 38.7 9.5 48.4 9.5 58.1 19.1 58.1 28.6 58.1"/>
    <polygon class="cls-3" points="28.6 29 28.6 19.4 28.6 9.7 19.1 9.7 9.5 9.7 9.5 19.4 9.5 29 19.1 29 28.6 29"/>
    <rect class="cls-1" y="183.9" width="9.5" height="9.68"/>
  </g>
</svg>
