<svg id="Layer_1" data-name="Layer 1" xmlns="http://www.w3.org/2000/svg" viewBox="0 0 300 200" width="300" height="200">
  <defs>
    <style>
      .cls-1 {
        fill: none;
      }

      .cls-2 {
        fill: #1b1464;
      }

      .cls-3 {
        fill: #29abe2;
      }

      .cls-4 {
        fill: #0071bc;
      }

      .cls-5 {
        fill: #2e3192;
      }

      .cls-6 {
        fill: gray;
      }

      .cls-7 {
        fill: #333;
      }

      .cls-8 {
        fill: #ccc;
      }

      .cls-9 {
        fill: #4d4d4d;
      }
    </style>
  </defs>
  <title>car</title>
  <g>
    <polygon class="cls-1" points="58.1 133.3 67.7 133.3 67.7 123.8 58.1 123.8 48.4 123.8 38.7 123.8 38.7 133.3 48.4 133.3 58.1 133.3"/>
    <rect class="cls-1" x="29" y="133.3" width="9.7" height="9.53"/>
    <rect class="cls-1" x="67.7" y="133.3" width="9.7" height="9.53"/>
    <rect class="cls-1" x="19.3" y="142.9" width="9.7" height="9.52"/>
    <rect class="cls-1" x="261.3" y="133.3" width="9.7" height="9.53"/>
    <rect class="cls-1" x="222.6" y="133.3" width="9.7" height="9.53"/>
    <rect class="cls-1" x="77.4" y="142.9" width="9.7" height="9.52"/>
    <polygon class="cls-1" points="251.6 133.3 261.3 133.3 261.3 123.8 251.6 123.8 241.9 123.8 232.3 123.8 232.3 133.3 241.9 133.3 251.6 133.3"/>
    <rect class="cls-1" x="212.9" y="142.9" width="9.7" height="9.52"/>
    <polygon class="cls-2" points="38.7 95.2 38.7 85.7 38.7 76.2 38.7 66.7 38.7 57.1 29 57.1 29 66.7 19.4 66.7 19.4 76.2 19.4 85.7 9.7 85.7 9.7 95.2 9.7 104.8 9.7 114.3 19.4 114.3 29 114.3 38.7 114.3 38.7 104.8 38.7 95.2"/>
    <polygon class="cls-3" points="174.2 57.1 183.9 57.1 183.9 66.7 183.9 76.2 193.6 76.2 193.6 85.7 203.2 85.7 203.2 95.2 212.9 95.2 212.9 85.7 212.9 76.2 212.9 66.7 212.9 57.1 212.9 47.6 212.9 38.1 203.2 38.1 193.6 38.1 183.9 38.1 174.2 38.1 174.2 47.6 174.2 57.1"/>
    <polygon class="cls-4" points="154.8 57.1 154.8 66.7 164.5 66.7 164.5 76.2 174.2 76.2 174.2 85.7 174.2 95.2 183.9 95.2 193.6 95.2 203.2 95.2 203.2 85.7 193.6 85.7 193.6 76.2 183.9 76.2 183.9 66.7 183.9 57.1 174.2 57.1 174.2 47.6 174.2 38.1 164.5 38.1 154.8 38.1 154.8 47.6 154.8 57.1"/>
    <polygon class="cls-5" points="145.2 57.1 145.2 66.7 145.2 76.2 145.2 85.7 145.2 95.2 145.2 104.8 145.2 114.3 154.8 114.3 164.5 114.3 174.2 114.3 183.9 114.3 193.6 114.3 203.2 114.3 212.9 114.3 212.9 104.8 212.9 95.2 203.2 95.2 193.6 95.2 183.9 95.2 174.2 95.2 174.2 85.7 174.2 76.2 164.5 76.2 164.5 66.7 154.8 66.7 154.8 57.1 154.8 47.6 154.8 38.1 145.2 38.1 145.2 47.6 145.2 57.1"/>
    <polygon class="cls-2" points="125.8 57.1 125.8 66.7 125.8 76.2 125.8 85.7 125.8 95.2 125.8 104.8 125.8 114.3 135.5 114.3 135.5 104.8 135.5 95.2 135.5 85.7 135.5 76.2 135.5 66.7 135.5 57.1 135.5 47.6 135.5 38.1 125.8 38.1 125.8 47.6 125.8 57.1"/>
    <polygon class="cls-5" points="87.1 114.3 96.8 114.3 106.5 114.3 116.1 114.3 116.1 104.8 116.1 95.2 106.5 95.2 96.8 95.2 87.1 95.2 77.4 95.2 77.4 85.7 67.7 85.7 67.7 76.2 67.7 66.7 58.1 66.7 58.1 57.1 58.1 47.6 58.1 38.1 48.4 38.1 48.4 47.6 48.4 57.1 48.4 66.7 48.4 76.2 48.4 85.7 48.4 95.2 48.4 104.8 48.4 114.3 58.1 114.3 67.7 114.3 77.4 114.3 87.1 114.3"/>
    <polygon class="cls-3" points="77.4 57.1 87.1 57.1 87.1 66.7 87.1 76.2 96.8 76.2 96.8 85.7 106.5 85.7 106.5 95.2 116.1 95.2 116.1 85.7 116.1 76.2 116.1 66.7 116.1 57.1 116.1 47.6 116.1 38.1 106.5 38.1 96.8 38.1 87.1 38.1 77.4 38.1 77.4 47.6 77.4 57.1"/>
    <polygon class="cls-4" points="58.1 57.1 58.1 66.7 67.7 66.7 67.7 76.2 67.7 85.7 77.4 85.7 77.4 95.2 87.1 95.2 96.8 95.2 106.5 95.2 106.5 85.7 96.8 85.7 96.8 76.2 87.1 76.2 87.1 66.7 87.1 57.1 77.4 57.1 77.4 47.6 77.4 38.1 67.7 38.1 58.1 38.1 58.1 47.6 58.1 57.1"/>
    <polygon class="cls-6" points="174.2 133.3 174.2 142.9 174.2 152.4 183.9 152.4 183.9 142.9 183.9 133.3 174.2 133.3"/>
    <polygon class="cls-7" points="164.5 133.3 154.8 133.3 145.2 133.3 135.5 133.3 125.8 133.3 125.8 142.9 135.5 142.9 145.2 142.9 154.8 142.9 164.5 142.9 174.2 142.9 174.2 133.3 164.5 133.3"/>
    <polygon class="cls-6" points="116.1 133.3 116.1 142.9 116.1 152.4 125.8 152.4 125.8 142.9 125.8 133.3 116.1 133.3"/>
    <polygon class="cls-5" points="241.9 85.7 241.9 76.2 232.3 76.2 232.3 66.7 232.3 57.1 232.3 47.6 232.3 38.1 222.6 38.1 222.6 47.6 222.6 57.1 222.6 66.7 222.6 76.2 222.6 85.7 222.6 95.2 222.6 104.8 232.3 104.8 232.3 114.3 241.9 114.3 251.6 114.3 251.6 104.8 251.6 95.2 241.9 95.2 241.9 85.7"/>
    <polygon class="cls-4" points="271 104.8 271 114.3 280.6 114.3 290.3 114.3 290.3 104.8 280.6 104.8 271 104.8"/>
    <polygon class="cls-4" points="251.6 114.3 261.3 114.3 261.3 104.8 261.3 95.2 251.6 95.2 251.6 104.8 251.6 114.3"/>
    <polygon class="cls-4" points="251.6 66.7 251.6 57.1 251.6 47.6 251.6 38.1 241.9 38.1 232.3 38.1 232.3 47.6 232.3 57.1 232.3 66.7 232.3 76.2 241.9 76.2 241.9 85.7 241.9 95.2 251.6 95.2 251.6 85.7 261.3 85.7 261.3 76.2 251.6 76.2 251.6 66.7"/>
    <polygon class="cls-3" points="280.6 76.2 280.6 66.7 271 66.7 271 57.1 271 47.6 261.3 47.6 251.6 47.6 251.6 57.1 251.6 66.7 251.6 76.2 261.3 76.2 271 76.2 271 85.7 271 95.2 271 104.8 280.6 104.8 290.3 104.8 290.3 95.2 290.3 85.7 280.6 85.7 280.6 76.2"/>
    <path d="M290.3,76.2V57.1h-9.6v-19H261.3V28.6H87.1V19H77.4v9.6H67.7V0H58.1V28.6H38.7v9.5H19.3v9.5H9.7V66.7H0v95.2H9.7v-9.5h9.6v-9.5H29v-9.6h9.7v-9.5h29v9.5h9.7v9.6h9.7v9.5h9.7v9.5H203.2v-9.5h9.7v-9.5h9.7v-9.6h9.7v-9.5h29v9.5H271v9.6h19.3v-9.6H300V76.2ZM154.8,38.1h58.1v76.2H145.2V38.1Zm-19.3,0v76.2h-9.7V38.1ZM29,114.3H9.7V85.7h9.6v-19H29V57.1h9.7v57.2Zm29.1,0H48.4V38.1h67.7v76.2h-58Zm135.4,28.6h-9.6v9.5h-9.7v-9.5H125.8v9.5h-9.7v-9.5H96.8v-9.6H203.2v9.6Zm96.8-47.7v19.1H271V76.2h-9.7v9.5h-9.7v9.5h9.7v19.1h-29v-9.5h-9.7V38.1h29v9.5H271V66.7h9.7v19h9.6Z"/>
    <polygon class="cls-7" points="193.6 133.3 183.9 133.3 183.9 142.9 193.6 142.9 203.2 142.9 203.2 133.3 193.6 133.3"/>
    <polygon class="cls-7" points="106.5 133.3 96.8 133.3 96.8 142.9 106.5 142.9 116.1 142.9 116.1 133.3 106.5 133.3"/>
    <rect class="cls-8" x="241.9" y="161.9" width="9.7" height="9.53"/>
    <path class="cls-9" d="M241.9,142.9v9.5h-9.6v9.5h-9.7v9.5h9.7V181h9.6v9.5h9.7V181h9.7v-9.6H271v-9.5h-9.7v-9.5h-9.7v-9.5Zm9.7,28.5h-9.7v-9.5h9.7Z"/>
    <path class="cls-9" d="M58.1,152.4v-9.5H48.4v9.5H38.7v9.5H29v9.5h9.7V181h9.7v9.5h9.7V181h9.6v-9.6h9.7v-9.5H67.7v-9.5Zm0,19H48.4v-9.5h9.7Z"/>
    <rect class="cls-8" x="48.4" y="161.9" width="9.7" height="9.53"/>
    <path class="cls-7" d="M261.3,133.3h-29v9.6h-9.7v9.5h-9.7V181h9.7v9.5h9.7V200h29v-9.5H271V181h9.7V152.4H271v-9.5h-9.7Zm0,19.1v9.5H271v9.5h-9.7V181h-9.7v9.5h-9.7V181h-9.6v-9.6h-9.7v-9.5h9.7v-9.5h9.6v-9.5h9.7v9.5Z"/>
    <path class="cls-7" d="M77.4,142.9H67.7v-9.6h-29v9.6H29v9.5H19.3V181H29v9.5h9.7V200h29v-9.5h9.7V181h9.7V152.4H77.4Zm0,19v9.5H67.7V181H58.1v9.5H48.4V181H38.7v-9.6H29v-9.5h9.7v-9.5h9.7v-9.5h9.7v9.5h9.6v9.5Z"/>
  </g>
</svg>
