<svg id="Layer_1" data-name="Layer 1" xmlns="http://www.w3.org/2000/svg" viewBox="0 0 200 400" width="200" height="400">
  <defs>
    <style>
      .cls-1 {
        fill: gray;
      }

      .cls-2 {
        fill: #333;
      }

      .cls-3 {
        fill: #1a1a1a;
      }
    </style>
  </defs>
  <title>object</title>
  <g>
    <polygon class="cls-1" points="190.5 351.2 190.5 341.5 190.5 331.7 190.5 321.9 190.5 312.2 190.5 302.4 190.5 292.7 190.5 282.9 180.9 282.9 180.9 273.2 180.9 263.4 180.9 253.7 171.4 253.7 171.4 243.9 171.4 234.2 171.4 224.4 171.4 214.6 171.4 204.9 171.4 195.1 171.4 185.4 171.4 175.6 161.9 175.6 161.9 165.8 161.9 156.1 161.9 146.3 161.9 136.6 161.9 126.8 161.9 117.1 152.4 117.1 152.4 107.3 152.4 97.6 152.4 87.8 152.4 78 142.9 78 142.9 68.3 142.9 58.5 142.9 48.8 133.3 48.8 133.3 39 133.3 29.3 133.3 19.5 133.3 9.8 133.3 0 123.8 0 114.3 0 114.3 9.8 123.8 9.8 123.8 19.5 123.8 29.3 123.8 39 123.8 48.8 123.8 58.5 133.3 58.5 133.3 68.3 133.3 78 133.3 87.8 133.3 97.6 133.3 107.3 133.3 117.1 133.3 126.8 123.8 126.8 123.8 136.6 123.8 146.3 123.8 156.1 123.8 165.8 133.3 165.8 142.9 165.8 142.9 175.6 142.9 185.4 133.3 185.4 133.3 195.1 133.3 204.9 133.3 214.6 133.3 224.4 133.3 234.2 142.9 234.2 142.9 224.4 142.9 214.6 152.4 214.6 152.4 224.4 152.4 234.2 152.4 243.9 152.4 253.7 152.4 263.4 142.9 263.4 142.9 273.2 142.9 282.9 133.3 282.9 133.3 292.7 133.3 302.4 133.3 312.2 123.8 312.2 123.8 321.9 114.3 321.9 114.3 331.7 114.3 341.5 114.3 351.2 123.8 351.2 123.8 361 123.8 370.7 114.3 370.7 114.3 380.5 104.8 380.5 95.2 380.5 95.2 390.2 85.7 390.2 76.2 390.2 76.2 400 85.7 400 95.2 400 104.8 400 114.3 400 123.8 400 133.3 400 142.9 400 152.4 400 161.9 400 171.4 400 180.9 400 190.5 400 200 400 200 390.2 200 380.5 200 370.7 200 361 200 351.2 190.5 351.2"/>
    <polygon class="cls-2" points="85.7 390.2 95.2 390.2 95.2 380.5 104.8 380.5 114.3 380.5 114.3 370.7 123.8 370.7 123.8 361 123.8 351.2 114.3 351.2 114.3 341.5 114.3 331.7 114.3 321.9 123.8 321.9 123.8 312.2 133.3 312.2 133.3 302.4 133.3 292.7 133.3 282.9 142.9 282.9 142.9 273.2 142.9 263.4 152.4 263.4 152.4 253.7 152.4 243.9 152.4 234.2 152.4 224.4 152.4 214.6 142.9 214.6 142.9 224.4 142.9 234.2 133.3 234.2 133.3 224.4 133.3 214.6 133.3 204.9 133.3 195.1 133.3 185.4 142.9 185.4 142.9 175.6 142.9 165.8 133.3 165.8 123.8 165.8 123.8 156.1 123.8 146.3 123.8 136.6 123.8 126.8 133.3 126.8 133.3 117.1 133.3 107.3 133.3 97.6 133.3 87.8 133.3 78 133.3 68.3 133.3 58.5 123.8 58.5 123.8 48.8 123.8 39 123.8 29.3 123.8 19.5 123.8 9.8 114.3 9.8 114.3 0 104.8 0 104.8 9.8 95.2 9.8 95.2 19.5 95.2 29.3 104.8 29.3 104.8 39 95.2 39 95.2 48.8 95.2 58.5 104.8 58.5 104.8 68.3 95.2 68.3 95.2 78 85.7 78 85.7 87.8 76.2 87.8 76.2 97.6 76.2 107.3 76.2 117.1 76.2 126.8 76.2 136.6 85.7 136.6 95.2 136.6 95.2 146.3 95.2 156.1 95.2 165.8 85.7 165.8 85.7 175.6 85.7 185.4 85.7 195.1 85.7 204.9 85.7 214.6 85.7 224.4 85.7 234.2 85.7 243.9 76.2 243.9 76.2 253.7 76.2 263.4 76.2 273.2 76.2 282.9 76.2 292.7 66.7 292.7 66.7 302.4 66.7 312.2 66.7 321.9 57.1 321.9 57.1 331.7 57.1 341.5 57.1 351.2 47.6 351.2 47.6 361 47.6 370.7 47.6 380.5 47.6 390.2 38.1 390.2 38.1 400 47.6 400 57.1 400 66.7 400 76.2 400 76.2 390.2 85.7 390.2"/>
    <polygon class="cls-3" points="47.6 390.2 47.6 380.5 47.6 370.7 47.6 361 47.6 351.2 57.1 351.2 57.1 341.5 57.1 331.7 57.1 321.9 66.7 321.9 66.7 312.2 66.7 302.4 66.7 292.7 76.2 292.7 76.2 282.9 76.2 273.2 76.2 263.4 76.2 253.7 76.2 243.9 85.7 243.9 85.7 234.2 85.7 224.4 85.7 214.6 85.7 204.9 85.7 195.1 85.7 185.4 85.7 175.6 85.7 165.8 95.2 165.8 95.2 156.1 95.2 146.3 95.2 136.6 85.7 136.6 76.2 136.6 66.7 136.6 66.7 146.3 66.7 156.1 66.7 165.8 66.7 175.6 66.7 185.4 57.1 185.4 57.1 195.1 57.1 204.9 57.1 214.6 47.6 214.6 47.6 224.4 38.1 224.4 38.1 234.2 38.1 243.9 38.1 253.7 38.1 263.4 38.1 273.2 38.1 282.9 47.6 282.9 47.6 292.7 38.1 292.7 38.1 302.4 38.1 312.2 38.1 321.9 38.1 331.7 28.6 331.7 28.6 341.5 28.6 351.2 19.1 351.2 19.1 361 19.1 370.7 9.5 370.7 0 370.7 0 380.5 0 390.2 0 400 9.5 400 19.1 400 28.6 400 38.1 400 38.1 390.2 47.6 390.2"/>
  </g>
</svg>
