<svg id="Layer_1" data-name="Layer 1" xmlns="http://www.w3.org/2000/svg" viewBox="0 0 190.5 361">
  <defs>
    <style>
      .cls-1 {
        fill: none;
      }

      .cls-2 {
        fill: #333;
      }

      .cls-3 {
        fill: #d4ebf2;
      }

      .cls-4 {
        fill: #29abe2;
      }

      .cls-5 {
        fill: #2e3192;
      }

      .cls-6 {
        fill: #0071bc;
      }

      .cls-7 {
        fill: #93278f;
      }

      .cls-8 {
        fill: #1b1464;
      }

      .cls-9 {
        fill: #fff;
      }
    </style>
  </defs>
  <title>player21</title>
  <g>
    <polygon class="cls-1" points="95.2 263.4 95.2 253.7 95.2 243.9 85.7 243.9 85.7 253.7 85.7 263.4 85.7 273.2 85.7 282.9 95.2 282.9 95.2 273.2 95.2 263.4"/>
    <rect class="cls-1" x="95.2" y="97.6" width="9.5" height="9.75"/>
    <polygon class="cls-2" points="181 126.8 181 136.6 181 146.3 181 156.1 190.5 156.1 190.5 146.3 190.5 136.6 190.5 126.8 181 126.8"/>
    <polygon class="cls-2" points="171.4 165.9 161.9 165.9 152.4 165.9 142.9 165.9 142.9 175.6 152.4 175.6 161.9 175.6 171.4 175.6 181 175.6 181 165.9 181 156.1 171.4 156.1 171.4 165.9"/>
    <rect class="cls-3" x="171.4" y="146.4" width="9.5" height="9.75"/>
    <rect class="cls-2" x="171.4" y="117.1" width="9.5" height="9.75"/>
    <rect class="cls-2" x="161.9" y="146.4" width="9.5" height="9.75"/>
    <rect class="cls-3" x="161.9" y="136.6" width="9.5" height="9.76"/>
    <polygon class="cls-4" points="161.9 126.8 161.9 136.6 171.4 136.6 171.4 146.3 181 146.3 181 136.6 181 126.8 171.4 126.8 171.4 117.1 161.9 117.1 161.9 126.8"/>
    <polygon class="cls-3" points="152.4 156.1 152.4 165.9 161.9 165.9 171.4 165.9 171.4 156.1 161.9 156.1 152.4 156.1"/>
    <rect class="cls-4" x="152.4" y="146.4" width="9.5" height="9.75"/>
    <polygon class="cls-2" points="152.4 126.8 152.4 136.6 152.4 146.3 161.9 146.3 161.9 136.6 161.9 126.8 161.9 117.1 171.4 117.1 171.4 107.3 161.9 107.3 152.4 107.3 142.9 107.3 142.9 117.1 152.4 117.1 152.4 126.8"/>
    <polygon class="cls-2" points="142.9 351.2 142.9 341.5 133.3 341.5 133.3 351.2 123.8 351.2 114.3 351.2 104.8 351.2 95.2 351.2 85.7 351.2 76.2 351.2 66.7 351.2 66.7 341.5 76.2 341.5 85.7 341.5 85.7 331.7 76.2 331.7 76.2 322 66.7 322 66.7 331.7 57.1 331.7 57.1 341.5 57.1 351.2 57.1 361 66.7 361 76.2 361 85.7 361 95.2 361 104.8 361 114.3 361 123.8 361 133.3 361 142.9 361 152.4 361 161.9 361 171.4 361 171.4 351.2 161.9 351.2 161.9 341.5 152.4 341.5 152.4 351.2 142.9 351.2"/>
    <rect class="cls-5" x="142.9" y="341.5" width="9.5" height="9.75"/>
    <rect class="cls-2" x="142.9" y="331.7" width="9.5" height="9.76"/>
    <polygon class="cls-6" points="152.4 165.9 152.4 156.1 142.9 156.1 142.9 146.3 142.9 136.6 133.3 136.6 123.8 136.6 123.8 146.3 114.3 146.3 114.3 136.6 104.8 136.6 104.8 126.8 95.2 126.8 95.2 117.1 85.7 117.1 76.2 117.1 76.2 107.3 66.7 107.3 57.1 107.3 57.1 97.6 47.6 97.6 38.1 97.6 38.1 107.3 28.6 107.3 19.1 107.3 19.1 117.1 19.1 126.8 19.1 136.6 19.1 146.3 9.5 146.3 9.5 156.1 9.5 165.9 19.1 165.9 28.6 165.9 28.6 156.1 38.1 156.1 38.1 146.3 38.1 136.6 38.1 126.8 38.1 117.1 47.6 117.1 57.1 117.1 57.1 126.8 57.1 136.6 66.7 136.6 66.7 146.3 76.2 146.3 76.2 136.6 85.7 136.6 85.7 146.3 95.2 146.3 95.2 156.1 104.8 156.1 104.8 165.9 114.3 165.9 114.3 175.6 123.8 175.6 133.3 175.6 142.9 175.6 142.9 165.9 152.4 165.9"/>
    <polygon class="cls-3" points="152.4 136.6 152.4 126.8 142.9 126.8 142.9 136.6 142.9 146.3 142.9 156.1 152.4 156.1 152.4 146.3 152.4 136.6"/>
    <rect class="cls-4" x="142.9" y="117.1" width="9.5" height="9.75"/>
    <rect class="cls-5" x="133.3" y="331.7" width="9.5" height="9.76"/>
    <rect class="cls-2" x="133.3" y="322" width="9.5" height="9.75"/>
    <rect class="cls-2" x="123.8" y="331.7" width="9.5" height="9.76"/>
    <rect class="cls-5" x="123.8" y="322" width="9.5" height="9.75"/>
    <polygon class="cls-2" points="123.8 175.6 114.3 175.6 114.3 165.9 104.8 165.9 95.2 165.9 95.2 175.6 104.8 175.6 104.8 185.4 114.3 185.4 114.3 195.1 123.8 195.1 123.8 204.9 114.3 204.9 104.8 204.9 104.8 214.6 104.8 224.4 114.3 224.4 114.3 234.2 123.8 234.2 123.8 243.9 123.8 253.7 123.8 263.4 123.8 273.2 123.8 282.9 123.8 292.7 133.3 292.7 133.3 282.9 133.3 273.2 133.3 263.4 133.3 253.7 133.3 243.9 133.3 234.2 133.3 224.4 123.8 224.4 123.8 214.6 133.3 214.6 133.3 204.9 133.3 195.1 133.3 185.4 142.9 185.4 142.9 175.6 133.3 175.6 123.8 175.6"/>
    <polygon class="cls-2" points="114.3 302.4 114.3 312.2 104.8 312.2 95.2 312.2 95.2 302.4 95.2 292.7 95.2 282.9 85.7 282.9 85.7 273.2 85.7 263.4 85.7 253.7 85.7 243.9 95.2 243.9 95.2 253.7 95.2 263.4 95.2 273.2 95.2 282.9 104.8 282.9 104.8 273.2 104.8 263.4 104.8 253.7 104.8 243.9 104.8 234.2 95.2 234.2 85.7 234.2 85.7 224.4 76.2 224.4 76.2 234.2 76.2 243.9 76.2 253.7 76.2 263.4 76.2 273.2 76.2 282.9 76.2 292.7 85.7 292.7 85.7 302.4 85.7 312.2 85.7 322 85.7 331.7 95.2 331.7 95.2 322 104.8 322 114.3 322 114.3 331.7 123.8 331.7 123.8 322 133.3 322 133.3 312.2 123.8 312.2 123.8 302.4 123.8 292.7 114.3 292.7 114.3 302.4"/>
    <polygon class="cls-6" points="123.8 273.2 123.8 263.4 123.8 253.7 123.8 243.9 123.8 234.2 114.3 234.2 114.3 224.4 104.8 224.4 104.8 214.6 104.8 204.9 114.3 204.9 123.8 204.9 123.8 195.1 114.3 195.1 104.8 195.1 95.2 195.1 95.2 204.9 85.7 204.9 85.7 214.6 76.2 214.6 66.7 214.6 66.7 204.9 57.1 204.9 57.1 214.6 57.1 224.4 47.6 224.4 47.6 234.2 47.6 243.9 47.6 253.7 57.1 253.7 57.1 263.4 57.1 273.2 57.1 282.9 57.1 292.7 66.7 292.7 66.7 302.4 66.7 312.2 66.7 322 76.2 322 76.2 331.7 85.7 331.7 85.7 322 85.7 312.2 85.7 302.4 85.7 292.7 76.2 292.7 76.2 282.9 76.2 273.2 76.2 263.4 76.2 253.7 76.2 243.9 76.2 234.2 76.2 224.4 85.7 224.4 85.7 234.2 95.2 234.2 104.8 234.2 104.8 243.9 104.8 253.7 104.8 263.4 104.8 273.2 104.8 282.9 95.2 282.9 95.2 292.7 95.2 302.4 95.2 312.2 104.8 312.2 114.3 312.2 114.3 302.4 114.3 292.7 123.8 292.7 123.8 282.9 123.8 273.2"/>
    <polygon class="cls-5" points="104.8 341.5 104.8 351.2 114.3 351.2 123.8 351.2 133.3 351.2 133.3 341.5 123.8 341.5 123.8 331.7 114.3 331.7 114.3 322 104.8 322 95.2 322 95.2 331.7 95.2 341.5 104.8 341.5"/>
    <polygon class="cls-6" points="95.2 29.3 95.2 39 104.8 39 104.8 48.8 114.3 48.8 114.3 58.5 123.8 58.5 133.3 58.5 133.3 48.8 133.3 39 123.8 39 123.8 29.3 114.3 29.3 114.3 19.5 104.8 19.5 95.2 19.5 95.2 29.3"/>
    <rect class="cls-7" x="85.7" y="78.1" width="9.5" height="9.76"/>
    <polygon class="cls-8" points="76.2 341.5 66.7 341.5 66.7 351.2 76.2 351.2 85.7 351.2 95.2 351.2 104.8 351.2 104.8 341.5 95.2 341.5 95.2 331.7 85.7 331.7 85.7 341.5 76.2 341.5"/>
    <rect class="cls-8" x="76.2" y="185.4" width="9.5" height="9.76"/>
    <polygon class="cls-5" points="85.7 156.1 85.7 165.9 85.7 175.6 85.7 185.4 85.7 195.1 76.2 195.1 76.2 204.9 76.2 214.6 85.7 214.6 85.7 204.9 95.2 204.9 95.2 195.1 104.8 195.1 114.3 195.1 114.3 185.4 104.8 185.4 104.8 175.6 95.2 175.6 95.2 165.9 104.8 165.9 104.8 156.1 95.2 156.1 95.2 146.3 85.7 146.3 85.7 136.6 76.2 136.6 76.2 146.3 76.2 156.1 85.7 156.1"/>
    <polygon class="cls-9" points="76.2 68.3 76.2 78 76.2 87.8 85.7 87.8 85.7 78 95.2 78 95.2 68.3 85.7 68.3 76.2 68.3"/>
    <polygon class="cls-8" points="76.2 195.1 66.7 195.1 57.1 195.1 57.1 204.9 66.7 204.9 66.7 214.6 76.2 214.6 76.2 204.9 76.2 195.1"/>
    <rect class="cls-8" x="66.7" y="146.4" width="9.5" height="9.75"/>
    <polygon class="cls-2" points="66.7 302.4 66.7 292.7 57.1 292.7 57.1 302.4 57.1 312.2 57.1 322 66.7 322 66.7 312.2 66.7 302.4"/>
    <polygon class="cls-3" points="57.1 165.9 57.1 175.6 57.1 185.4 66.7 185.4 66.7 175.6 76.2 175.6 76.2 165.9 66.7 165.9 66.7 156.1 57.1 156.1 57.1 165.9"/>
    <polygon class="cls-6" points="66.7 78 66.7 68.3 66.7 58.5 76.2 58.5 76.2 48.8 85.7 48.8 85.7 39 85.7 29.3 76.2 29.3 76.2 39 66.7 39 66.7 48.8 57.1 48.8 57.1 58.5 47.6 58.5 47.6 68.3 57.1 68.3 57.1 78 66.7 78"/>
    <polygon class="cls-2" points="57.1 273.2 57.1 263.4 57.1 253.7 47.6 253.7 47.6 243.9 47.6 234.2 47.6 224.4 57.1 224.4 57.1 214.6 57.1 204.9 57.1 195.1 66.7 195.1 76.2 195.1 76.2 185.4 85.7 185.4 85.7 175.6 85.7 165.9 85.7 156.1 76.2 156.1 66.7 156.1 66.7 165.9 76.2 165.9 76.2 175.6 66.7 175.6 66.7 185.4 57.1 185.4 47.6 185.4 38.1 185.4 28.6 185.4 28.6 175.6 19.1 175.6 19.1 165.9 9.5 165.9 9.5 156.1 9.5 146.3 0 146.3 0 156.1 0 165.9 0 175.6 9.5 175.6 9.5 185.4 19.1 185.4 19.1 195.1 28.6 195.1 38.1 195.1 47.6 195.1 47.6 204.9 47.6 214.6 38.1 214.6 38.1 224.4 38.1 234.2 38.1 243.9 38.1 253.7 38.1 263.4 47.6 263.4 47.6 273.2 47.6 282.9 47.6 292.7 57.1 292.7 57.1 282.9 57.1 273.2"/>
    <polygon class="cls-3" points="57.1 156.1 57.1 146.3 47.6 146.3 38.1 146.3 38.1 156.1 47.6 156.1 57.1 156.1"/>
    <polygon class="cls-2" points="57.1 146.3 57.1 156.1 66.7 156.1 66.7 146.3 66.7 136.6 57.1 136.6 57.1 126.8 57.1 117.1 47.6 117.1 38.1 117.1 38.1 126.8 38.1 136.6 38.1 146.3 47.6 146.3 57.1 146.3"/>
    <path class="cls-2" d="M66.7,136.6v9.7h19v9.8h19.1v9.7h9.5v9.8h9.5v9.8h9.5v-9.8h19.1V156.1h-9.5v9.7H123.8v-9.7h-9.5v-9.8h-9.5v-9.7h9.5v9.7h19V126.8h-19V107.3h9.5v9.8h19.1v-9.8h9.5v-39h-9.5V58.5h-9.6V48.8h-19V39H57.1v9.8H47.6v9.7H38.1v48.8h9.5v9.8h9.5v9.7H47.6v9.8H66.7Zm38.1-19.5v9.7H85.7V107.3h19.1Zm19-58.6v9.8h9.5V78h9.6V97.6H123.8V87.8h-9.5V78h-9.5V58.5h19ZM57.1,107.3V97.6H47.6V68.3h9.5V58.5H95.2V87.8H85.7v9.8H76.2v19.5H66.7v-9.8Z" transform="translate(-9.5 -39)"/>
    <polygon class="cls-5" points="57.1 48.8 66.7 48.8 66.7 39 76.2 39 76.2 29.3 85.7 29.3 85.7 19.5 76.2 19.5 66.7 19.5 66.7 29.3 57.1 29.3 57.1 39 47.6 39 47.6 48.8 38.1 48.8 38.1 58.5 47.6 58.5 57.1 58.5 57.1 48.8"/>
    <polygon class="cls-8" points="47.6 39 57.1 39 57.1 29.3 66.7 29.3 66.7 19.5 57.1 19.5 47.6 19.5 47.6 29.3 38.1 29.3 38.1 39 38.1 48.8 47.6 48.8 47.6 39"/>
    <polygon class="cls-4" points="28.6 175.6 28.6 185.4 38.1 185.4 47.6 185.4 57.1 185.4 57.1 175.6 57.1 165.9 57.1 156.1 47.6 156.1 38.1 156.1 28.6 156.1 28.6 165.9 19.1 165.9 19.1 175.6 28.6 175.6"/>
    <polygon class="cls-2" points="19.1 136.6 19.1 126.8 19.1 117.1 19.1 107.3 28.6 107.3 38.1 107.3 38.1 97.6 28.6 97.6 19.1 97.6 9.5 97.6 9.5 107.3 9.5 117.1 9.5 126.8 9.5 136.6 9.5 146.3 19.1 146.3 19.1 136.6"/>
  </g>
</svg>
