<svg id="Layer_1" data-name="Layer 1" xmlns="http://www.w3.org/2000/svg" viewBox="0 0 200 400">
  <defs>
    <style>
      .cls-1 {
        fill: none;
      }

      .cls-2 {
        fill: #333;
      }

      .cls-3 {
        fill: #d4ebf2;
      }

      .cls-4 {
        fill: #29abe2;
      }

      .cls-5 {
        fill: #0071bc;
      }

      .cls-6 {
        fill: #2e3192;
      }

      .cls-7 {
        fill: #1b1464;
      }

      .cls-8 {
        fill: #93278f;
      }

      .cls-9 {
        fill: #fff;
      }
    </style>
  </defs>
  <title>player</title>
  <g>
    <rect class="cls-1" x="104.8" y="136.6" width="9.5" height="9.75"/>
    <polygon class="cls-2" points="190.5 165.8 190.5 175.6 190.5 185.4 190.5 195.1 200 195.1 200 185.4 200 175.6 200 165.8 190.5 165.8"/>
    <polygon class="cls-2" points="180.9 204.9 171.4 204.9 161.9 204.9 152.4 204.9 152.4 214.6 161.9 214.6 171.4 214.6 180.9 214.6 190.5 214.6 190.5 204.9 190.5 195.1 180.9 195.1 180.9 204.9"/>
    <rect class="cls-3" x="181" y="185.4" width="9.5" height="9.75"/>
    <rect class="cls-2" x="181" y="156.1" width="9.5" height="9.75"/>
    <polygon class="cls-2" points="171.4 390.2 161.9 390.2 152.4 390.2 142.9 390.2 133.3 390.2 123.8 390.2 114.3 390.2 114.3 380.5 123.8 380.5 133.3 380.5 133.3 370.7 123.8 370.7 123.8 361 123.8 351.2 123.8 341.5 123.8 331.7 123.8 321.9 123.8 312.2 123.8 302.4 123.8 292.7 123.8 282.9 123.8 273.2 114.3 273.2 104.8 273.2 95.2 273.2 95.2 263.4 85.7 263.4 85.7 273.2 85.7 282.9 76.2 282.9 76.2 292.7 66.7 292.7 66.7 302.4 57.1 302.4 57.1 312.2 57.1 321.9 47.6 321.9 47.6 331.7 47.6 341.5 47.6 351.2 47.6 361 57.1 361 66.7 361 66.7 351.2 57.1 351.2 57.1 341.5 57.1 331.7 66.7 331.7 66.7 321.9 66.7 312.2 76.2 312.2 76.2 302.4 85.7 302.4 85.7 292.7 95.2 292.7 95.2 282.9 104.8 282.9 114.3 282.9 114.3 292.7 114.3 302.4 114.3 312.2 114.3 321.9 114.3 331.7 114.3 341.5 114.3 351.2 114.3 361 114.3 370.7 104.8 370.7 104.8 380.5 104.8 390.2 104.8 400 114.3 400 123.8 400 133.3 400 142.9 400 152.4 400 161.9 400 171.4 400 180.9 400 190.5 400 190.5 390.2 190.5 380.5 180.9 380.5 180.9 390.2 171.4 390.2"/>
    <rect class="cls-2" x="171.4" y="370.7" width="9.5" height="9.76"/>
    <rect class="cls-2" x="171.4" y="185.4" width="9.5" height="9.75"/>
    <rect class="cls-3" x="171.4" y="175.6" width="9.5" height="9.76"/>
    <polygon class="cls-4" points="171.4 165.8 171.4 175.6 180.9 175.6 180.9 185.4 190.5 185.4 190.5 175.6 190.5 165.8 180.9 165.8 180.9 156.1 171.4 156.1 171.4 165.8"/>
    <rect class="cls-2" x="161.9" y="361" width="9.5" height="9.75"/>
    <polygon class="cls-3" points="161.9 195.1 161.9 204.9 171.4 204.9 180.9 204.9 180.9 195.1 171.4 195.1 161.9 195.1"/>
    <rect class="cls-4" x="161.9" y="185.4" width="9.5" height="9.75"/>
    <polygon class="cls-2" points="161.9 165.8 161.9 175.6 161.9 185.4 171.4 185.4 171.4 175.6 171.4 165.8 171.4 156.1 180.9 156.1 180.9 146.3 171.4 146.3 161.9 146.3 152.4 146.3 152.4 156.1 161.9 156.1 161.9 165.8"/>
    <polygon class="cls-5" points="161.9 204.9 161.9 195.1 152.4 195.1 152.4 185.4 152.4 175.6 142.9 175.6 133.3 175.6 133.3 185.4 123.8 185.4 123.8 175.6 114.3 175.6 114.3 165.8 104.8 165.8 104.8 156.1 95.2 156.1 85.7 156.1 85.7 146.3 76.2 146.3 66.7 146.3 66.7 136.6 57.1 136.6 47.6 136.6 47.6 146.3 38.1 146.3 28.6 146.3 28.6 156.1 19.1 156.1 19.1 165.8 9.5 165.8 9.5 175.6 9.5 185.4 19.1 185.4 28.6 185.4 28.6 175.6 38.1 175.6 38.1 165.8 38.1 156.1 47.6 156.1 57.1 156.1 66.7 156.1 66.7 165.8 66.7 175.6 57.1 175.6 57.1 185.4 66.7 185.4 66.7 195.1 76.2 195.1 76.2 185.4 85.7 185.4 85.7 175.6 95.2 175.6 95.2 185.4 104.8 185.4 104.8 195.1 114.3 195.1 114.3 204.9 123.8 204.9 123.8 214.6 133.3 214.6 142.9 214.6 152.4 214.6 152.4 204.9 161.9 204.9"/>
    <polygon class="cls-3" points="161.9 175.6 161.9 165.8 152.4 165.8 152.4 175.6 152.4 185.4 152.4 195.1 161.9 195.1 161.9 185.4 161.9 175.6"/>
    <rect class="cls-4" x="152.4" y="156.1" width="9.5" height="9.75"/>
    <polygon class="cls-6" points="142.9 361 142.9 370.7 142.9 380.5 152.4 380.5 152.4 390.2 161.9 390.2 171.4 390.2 180.9 390.2 180.9 380.5 171.4 380.5 171.4 370.7 161.9 370.7 161.9 361 152.4 361 142.9 361"/>
    <polygon class="cls-2" points="142.9 331.7 142.9 341.5 142.9 351.2 142.9 361 152.4 361 161.9 361 161.9 351.2 152.4 351.2 152.4 341.5 152.4 331.7 152.4 321.9 152.4 312.2 142.9 312.2 142.9 321.9 142.9 331.7"/>
    <rect class="cls-2" x="133.3" y="361" width="9.5" height="9.75"/>
    <polygon class="cls-2" points="133.3 214.6 123.8 214.6 123.8 204.9 114.3 204.9 104.8 204.9 104.8 214.6 114.3 214.6 114.3 224.4 123.8 224.4 123.8 234.2 133.3 234.2 133.3 243.9 123.8 243.9 114.3 243.9 114.3 253.7 114.3 263.4 123.8 263.4 123.8 273.2 133.3 273.2 133.3 282.9 133.3 292.7 133.3 302.4 133.3 312.2 142.9 312.2 142.9 302.4 142.9 292.7 142.9 282.9 142.9 273.2 142.9 263.4 142.9 253.7 142.9 243.9 142.9 234.2 142.9 224.4 152.4 224.4 152.4 214.6 142.9 214.6 133.3 214.6"/>
    <polygon class="cls-7" points="123.8 380.5 114.3 380.5 114.3 390.2 123.8 390.2 133.3 390.2 142.9 390.2 152.4 390.2 152.4 380.5 142.9 380.5 142.9 370.7 133.3 370.7 133.3 380.5 123.8 380.5"/>
    <polygon class="cls-5" points="133.3 302.4 133.3 292.7 133.3 282.9 133.3 273.2 123.8 273.2 123.8 282.9 123.8 292.7 123.8 302.4 123.8 312.2 123.8 321.9 123.8 331.7 123.8 341.5 123.8 351.2 123.8 361 123.8 370.7 133.3 370.7 133.3 361 142.9 361 142.9 351.2 142.9 341.5 142.9 331.7 142.9 321.9 142.9 312.2 133.3 312.2 133.3 302.4"/>
    <polygon class="cls-5" points="104.8 234.2 104.8 243.9 95.2 243.9 95.2 253.7 85.7 253.7 76.2 253.7 76.2 243.9 66.7 243.9 66.7 253.7 66.7 263.4 66.7 273.2 57.1 273.2 57.1 282.9 47.6 282.9 47.6 292.7 38.1 292.7 38.1 302.4 38.1 312.2 38.1 321.9 28.6 321.9 28.6 331.7 28.6 341.5 28.6 351.2 28.6 361 28.6 370.7 38.1 370.7 38.1 361 47.6 361 47.6 351.2 47.6 341.5 47.6 331.7 47.6 321.9 57.1 321.9 57.1 312.2 57.1 302.4 66.7 302.4 66.7 292.7 76.2 292.7 76.2 282.9 85.7 282.9 85.7 273.2 85.7 263.4 95.2 263.4 95.2 273.2 104.8 273.2 114.3 273.2 123.8 273.2 123.8 263.4 114.3 263.4 114.3 253.7 114.3 243.9 123.8 243.9 133.3 243.9 133.3 234.2 123.8 234.2 114.3 234.2 104.8 234.2"/>
    <polygon class="cls-5" points="104.8 68.3 104.8 78 114.3 78 114.3 87.8 123.8 87.8 123.8 97.6 133.3 97.6 142.9 97.6 142.9 87.8 142.9 78 133.3 78 133.3 68.3 123.8 68.3 123.8 58.5 114.3 58.5 104.8 58.5 104.8 68.3"/>
    <rect class="cls-8" x="95.2" y="117.1" width="9.5" height="9.76"/>
    <polygon class="cls-6" points="95.2 195.1 95.2 204.9 95.2 214.6 95.2 224.4 95.2 234.2 85.7 234.2 85.7 243.9 85.7 253.7 95.2 253.7 95.2 243.9 104.8 243.9 104.8 234.2 114.3 234.2 123.8 234.2 123.8 224.4 114.3 224.4 114.3 214.6 104.8 214.6 104.8 204.9 114.3 204.9 114.3 195.1 104.8 195.1 104.8 185.4 95.2 185.4 95.2 175.6 85.7 175.6 85.7 185.4 85.7 195.1 95.2 195.1"/>
    <polygon class="cls-9" points="85.7 107.3 85.7 117.1 85.7 126.8 95.2 126.8 95.2 117.1 104.8 117.1 104.8 107.3 95.2 107.3 85.7 107.3"/>
    <polygon class="cls-2" points="76.2 390.2 66.7 390.2 57.1 390.2 47.6 390.2 38.1 390.2 28.6 390.2 19.1 390.2 19.1 380.5 28.6 380.5 38.1 380.5 38.1 370.7 28.6 370.7 28.6 361 28.6 351.2 28.6 341.5 28.6 331.7 28.6 321.9 38.1 321.9 38.1 312.2 38.1 302.4 38.1 292.7 47.6 292.7 47.6 282.9 57.1 282.9 57.1 273.2 66.7 273.2 66.7 263.4 66.7 253.7 66.7 243.9 66.7 234.2 66.7 224.4 76.2 224.4 85.7 224.4 85.7 214.6 85.7 204.9 76.2 204.9 76.2 195.1 66.7 195.1 66.7 185.4 57.1 185.4 57.1 175.6 66.7 175.6 66.7 165.8 66.7 156.1 57.1 156.1 47.6 156.1 38.1 156.1 38.1 165.8 38.1 175.6 38.1 185.4 47.6 185.4 47.6 195.1 57.1 195.1 57.1 204.9 66.7 204.9 66.7 214.6 57.1 214.6 57.1 224.4 47.6 224.4 38.1 224.4 38.1 214.6 28.6 214.6 19.1 214.6 19.1 204.9 9.5 204.9 9.5 195.1 9.5 185.4 9.5 175.6 9.5 165.8 19.1 165.8 19.1 156.1 28.6 156.1 28.6 146.3 38.1 146.3 47.6 146.3 47.6 136.6 38.1 136.6 28.6 136.6 19.1 136.6 19.1 146.3 9.5 146.3 9.5 156.1 0 156.1 0 165.8 0 175.6 0 185.4 0 195.1 0 204.9 0 214.6 9.5 214.6 9.5 224.4 19.1 224.4 28.6 224.4 28.6 234.2 38.1 234.2 47.6 234.2 57.1 234.2 57.1 243.9 57.1 253.7 57.1 263.4 47.6 263.4 47.6 273.2 38.1 273.2 38.1 282.9 28.6 282.9 28.6 292.7 28.6 302.4 28.6 312.2 19.1 312.2 19.1 321.9 19.1 331.7 19.1 341.5 19.1 351.2 19.1 361 19.1 370.7 9.5 370.7 9.5 380.5 9.5 390.2 9.5 400 19.1 400 28.6 400 38.1 400 47.6 400 57.1 400 66.7 400 76.2 400 85.7 400 95.2 400 95.2 390.2 95.2 380.5 85.7 380.5 85.7 390.2 76.2 390.2"/>
    <rect class="cls-2" x="76.2" y="370.7" width="9.5" height="9.76"/>
    <polygon class="cls-7" points="85.7 204.9 85.7 214.6 85.7 224.4 76.2 224.4 66.7 224.4 66.7 234.2 66.7 243.9 76.2 243.9 76.2 253.7 85.7 253.7 85.7 243.9 85.7 234.2 95.2 234.2 95.2 224.4 95.2 214.6 95.2 204.9 95.2 195.1 85.7 195.1 85.7 185.4 76.2 185.4 76.2 195.1 76.2 204.9 85.7 204.9"/>
    <rect class="cls-2" x="66.7" y="361" width="9.5" height="9.75"/>
    <polygon class="cls-5" points="76.2 117.1 76.2 107.3 76.2 97.6 85.7 97.6 85.7 87.8 95.2 87.8 95.2 78 95.2 68.3 85.7 68.3 85.7 78 76.2 78 76.2 87.8 66.7 87.8 66.7 97.6 57.1 97.6 57.1 107.3 66.7 107.3 66.7 117.1 76.2 117.1"/>
    <path class="cls-2" d="M66.7,136.6v9.7h19v9.8h19.1v9.7h9.5v9.8h9.5v9.8h9.5v-9.8h19.1V156.1h-9.5v9.7H123.8v-9.7h-9.5v-9.8h-9.5v-9.7h9.5v9.7h19V126.8h-19V107.3h9.5v9.8h19.1v-9.8h9.5v-39h-9.5V58.5h-9.6V48.8h-19V39H57.1v9.8H47.6v9.7H38.1v48.8h9.5v9.8h9.5v9.7H47.6v9.8H66.7Zm38.1-19.5v9.7H85.7V107.3h19.1Zm19-58.6v9.8h9.5V78h9.6V97.6H123.8V87.8h-9.5V78h-9.5V58.5h19ZM57.1,107.3V97.6H47.6V68.3h9.5V58.5H95.2V87.8H85.7v9.8H76.2v19.5H66.7v-9.8Z"/>
    <polygon class="cls-6" points="66.7 87.8 76.2 87.8 76.2 78 85.7 78 85.7 68.3 95.2 68.3 95.2 58.5 85.7 58.5 76.2 58.5 76.2 68.3 66.7 68.3 66.7 78 57.1 78 57.1 87.8 47.6 87.8 47.6 97.6 57.1 97.6 66.7 97.6 66.7 87.8"/>
    <polygon class="cls-6" points="47.6 361 47.6 370.7 47.6 380.5 57.1 380.5 57.1 390.2 66.7 390.2 76.2 390.2 85.7 390.2 85.7 380.5 76.2 380.5 76.2 370.7 66.7 370.7 66.7 361 57.1 361 47.6 361"/>
    <polygon class="cls-7" points="57.1 78 66.7 78 66.7 68.3 76.2 68.3 76.2 58.5 66.7 58.5 57.1 58.5 57.1 68.3 47.6 68.3 47.6 78 47.6 87.8 57.1 87.8 57.1 78"/>
    <polygon class="cls-7" points="38.1 380.5 28.6 380.5 19.1 380.5 19.1 390.2 28.6 390.2 38.1 390.2 47.6 390.2 57.1 390.2 57.1 380.5 47.6 380.5 47.6 370.7 38.1 370.7 38.1 380.5"/>
    <rect class="cls-2" x="38.1" y="361" width="9.5" height="9.75"/>
    <rect class="cls-4" x="38.1" y="214.6" width="9.5" height="9.76"/>
    <polygon class="cls-3" points="38.1 204.9 38.1 214.6 47.6 214.6 47.6 224.4 57.1 224.4 57.1 214.6 66.7 214.6 66.7 204.9 57.1 204.9 57.1 195.1 47.6 195.1 47.6 204.9 38.1 204.9"/>
    <polygon class="cls-3" points="38.1 195.1 47.6 195.1 47.6 185.4 38.1 185.4 28.6 185.4 28.6 195.1 38.1 195.1"/>
    <rect class="cls-4" x="28.6" y="175.6" width="9.5" height="9.76"/>
    <polygon class="cls-4" points="9.5 204.9 19.1 204.9 19.1 214.6 28.6 214.6 38.1 214.6 38.1 204.9 47.6 204.9 47.6 195.1 38.1 195.1 28.6 195.1 28.6 185.4 19.1 185.4 9.5 185.4 9.5 195.1 9.5 204.9"/>
  </g>
</svg>
