<?xml version="1.0" encoding="utf-8"?>
<!-- Generator: Adobe Illustrator 23.0.3, SVG Export Plug-In . SVG Version: 6.00 Build 0)  -->
<svg version="1.1" id="Ebene_1" xmlns="http://www.w3.org/2000/svg" xmlns:xlink="http://www.w3.org/1999/xlink" x="0px" y="0px"
	 viewBox="0 0 210.4 210.4" style="enable-background:new 0 0 210.4 210.4;" xml:space="preserve">
<style type="text/css">
	.st0{fill:#FFFFFF;stroke:#000000;stroke-miterlimit:10;}
	.st1{stroke:#000000;stroke-miterlimit:10;}
	.st2{fill:none;stroke:#000000;stroke-width:2;stroke-miterlimit:10;}
	.st3{fill:#FFFF00;stroke:#000000;stroke-miterlimit:10;}
	.st4{fill:#FFCE00;stroke:#FF0000;stroke-miterlimit:10;}
</style>
<circle class="st0" cx="106.4" cy="105.2" r="105.2"/>
<g id="Background">
</g>
<path class="st1" d="M119.4,98.2l-8.9,5.1c-2.7,1.5-6.2,0.6-7.7-2.1l-2.7-4.8c-1.5-2.7-0.6-6.2,2.1-7.7l8.9-5.1
	c2.7-1.5,6.2-0.6,7.7,2.1l2.7,4.8C123,93.2,122.1,96.7,119.4,98.2z"/>
<circle class="st1" cx="123.3" cy="115.2" r="25"/>
<path class="st2" d="M106.4,88.8C99.1,73.1,95.3,69.8,93,70.2c-4.7,0.9-1.3,18.6-11.2,24.8c-5.7,3.6-13.6,2.1-19.8,0"/>
<polygon class="st3" points="66.2,97 69.7,95.9 65.5,93.1 68,88.7 63.6,89.3 63.3,85.2 60.1,87.8 57.5,85 56.8,88.8 51.7,87.1 
	53.9,92.3 50.7,93.8 53.2,95.1 50.8,98.9 56.5,98.8 56.9,103 59.2,100.9 61.9,104.3 63.1,99 67.7,99.9 "/>
<polygon class="st4" points="65.9,96.9 69.1,95.8 65.2,93.2 67.6,89.1 63.4,89.7 63.2,85.8 60.1,88.2 57.7,85.5 57,89.1 52.2,87.5 
	54.2,92.4 51.2,93.8 53.6,95.1 51.3,98.6 56.7,98.6 57.1,102.5 59.2,100.5 61.8,103.8 62.9,98.7 67.2,99.6 "/>
</svg>
