<?xml version="1.0" encoding="utf-8"?>
<!-- Generator: Adobe Illustrator 23.0.3, SVG Export Plug-In . SVG Version: 6.00 Build 0)  -->
<svg version="1.1" id="Ebene_1" xmlns="http://www.w3.org/2000/svg" xmlns:xlink="http://www.w3.org/1999/xlink" x="0px" y="0px"
	 viewBox="0 0 210.4 210.4" style="enable-background:new 0 0 210.4 210.4;" xml:space="preserve">
<style type="text/css">
	.st0{fill:#FFFFFF;stroke:#000000;stroke-miterlimit:10;}
	.st1{fill:#B3B2B2;stroke:#000000;stroke-miterlimit:10;}
	.st2{fill:#FFFFFF;stroke:#E30613;stroke-width:2;stroke-miterlimit:10;}
</style>
<circle class="st0" cx="105.2" cy="105.2" r="105.2"/>
<g id="Background">
</g>
<g>
	<path class="st1" d="M166.7,115.4H45.7c-6,0-10.8-4.6-10.8-10.2c0-5.6,4.8-10.2,10.8-10.2h120.9c5.9,0,10.8,4.6,10.8,10.2
		S172.6,115.4,166.7,115.4z"/>
	<path class="st2" d="M204.1,116.5c-7.3-10.8,0-22.7,0-22.7"/>
	<path class="st2" d="M197.5,120.2c-9.6-14.2,0-30,0-30"/>
	<path class="st2" d="M22,122.9c11.4-16.8,0-35.5,0-35.5"/>
	<path class="st2" d="M190.4,122.9c-11.4-16.8,0-35.5,0-35.5"/>
	<path class="st2" d="M8.3,116.5c7.3-10.8,0-22.7,0-22.7"/>
	<path class="st2" d="M14.8,120.2c9.6-14.2,0-30,0-30"/>
</g>
</svg>
